<svg xmlns="http://www.w3.org/2000/svg" viewBox="0 0 256 256">
  <rect x="0" y="0" width="256" height="256" rx="52" fill="#09090b" />
  <g transform="translate(16, 98.1) scale(0.2333)">
    <path fill="#fafafa" d="M64 0h128v32h-128zM32 32h32v32h-32zM192 32h32v32h-32zM0 64h32v32h-32zM224 64h32v32h-32zM0 96h32v32h-32zM224 96h32v32h-32zM0 128h32v32h-32zM224 128h32v32h-32zM0 160h32v32h-32zM224 160h32v32h-32zM32 192h32v32h-32zM192 192h32v32h-32zM64 224h128v32h-128zM448 0h64v32h-64zM448 32h64v32h-64zM416 64h32v32h-32zM512 64h32v32h-32zM416 96h32v32h-32zM512 96h32v32h-32zM384 128h32v32h-32zM544 128h32v32h-32zM384 160h32v32h-32zM544 160h32v32h-32zM352 192h32v32h-32zM576 192h32v32h-32zM352 224h32v32h-32zM576 224h32v32h-32zM704 0h256v32h-256zM704 32h32v32h-32zM928 32h32v32h-32zM704 64h32v32h-32zM928 64h32v32h-32zM704 96h32v32h-32zM928 96h32v32h-32zM704 128h32v32h-32zM928 128h32v32h-32zM704 160h32v32h-32zM928 160h32v32h-32zM704 192h32v32h-32zM928 192h32v32h-32zM704 224h256v32h-256z" />
  </g>
</svg>
